<svg width="20" height="38" viewBox="0 0 20 38" fill="none" xmlns="http://www.w3.org/2000/svg">
<path d="M2.8151 11.3812C2.99799 14.2809 5.77688 16.4651 5.77688 16.4651C5.77688 16.4651 8.26046 13.948 8.07757 11.0483C7.89435 8.14679 5.11546 5.96259 5.11546 5.96259C5.11546 5.96259 2.63427 8.48279 2.8151 11.3812ZM1.97068 21.4113C3.67283 23.7673 7.19147 24.138 7.19147 24.138C7.19147 24.138 7.95109 20.6886 6.24894 18.3326C4.54678 15.9767 1.0278 15.6042 1.0278 15.6042C1.0278 15.6042 0.268526 19.0553 1.97068 21.4113ZM5.15448 30.2401C7.77453 31.506 11.0498 30.165 11.0498 30.165C11.0498 30.165 10.0753 26.7702 7.45527 25.5043C4.83523 24.2385 1.55993 25.5795 1.55993 25.5795C1.55993 25.5795 2.53444 28.9743 5.15448 30.2401ZM12.8103 36.4353C15.6365 37.1337 18.5646 35.1469 18.5646 35.1469C18.5646 35.1469 16.9089 32.0276 14.0824 31.3274C11.2562 30.629 8.33017 32.6171 8.33017 32.6171C8.33017 32.6171 9.98414 35.7369 12.8103 36.4353ZM9.40712 3.58742C7.70218 5.94423 8.45477 9.39289 8.45477 9.39289C8.45477 9.39289 11.976 9.02305 13.681 6.66624C15.3859 4.30944 14.633 0.859055 14.633 0.859055C14.633 0.859055 11.112 1.23062 9.40712 3.58742Z" stroke="#231F20" stroke-width="1.71801" stroke-linejoin="round"/>
</svg>
